<svg xmlns="http://www.w3.org/2000/svg" xmlns:xlink="http://www.w3.org/1999/xlink" viewBox="0 0 81 81" fill="#fff" fill-rule="evenodd" stroke="#000" stroke-linecap="round" stroke-linejoin="round"><use xlink:href="#A" x=".5" y=".5"/><symbol id="A" overflow="visible"><path d="M63.311 0H11.126C5.033 0 0 4.856 0 10.735v58.53C0 75.144 5.033 80 11.126 80h57.748C74.967 80 80 75.144 80 69.265V15.847L63.311 0zm9.801 69.265c0 2.3-1.854 4.089-4.238 4.089H11.126c-2.384 0-4.238-1.789-4.238-4.089v-58.53c0-2.3 1.854-4.089 4.238-4.089h48.742v13.035h13.245v49.585zM58.786 58.019v.256c-.256 1.534-2.045 3.067-3.578 3.067H41.917c-1.534 0-2.556-1.534-2.3-3.067v-.256c.511-1.533 2.045-2.811 3.578-2.811h13.291c1.789-.256 2.812 1.022 2.3 2.811zm-35.527 2.045h0c-1.022-1.278-.511-3.067 1.022-4.09l23.514-16.358-15.08-16.614c-1.022-1.022-.511-2.811 1.022-4.089h.256c.767-.511 2.3-.767 3.323.511l14.569 16.358 1.789 1.789.256.256c1.022 1.022 1.278 3.323.256 4.345l-2.556 1.789L28.115 60.32c-1.789 1.022-3.834 1.022-4.856-.255z" fill="#2a3282" stroke="none"/></symbol></svg>